<svg xmlns="http://www.w3.org/2000/svg" viewBox="0 0 410 404">
  <defs>
    <linearGradient id="vite-gradient" x1="-22.41%" x2="133.03%" y1="-6.01%" y2="60.12%">
      <stop offset="0%" stop-color="#41D1FF" />
      <stop offset="43.69%" stop-color="#BD34FE" />
      <stop offset="100%" stop-color="#FFA800" />
    </linearGradient>
  </defs>
  <path
    fill="#41D1FF"
    d="M399.641 59.525 215.699 388.047c-5.674 10.103-20.723 9.833-26.006-.486L10.407 59.61c-6.342-12.11 3.399-26.266 16.672-24.042l178.829 31.009a14.5 14.5 0 0 0 5.064-.026l171.567-30.698c13.16-2.354 23.014 12.139 16.77 24.251Z"
  />
  <path
    fill="#BD34FE"
    d="M292.965.006 156.789 27.455c-4.444.903-7.535 4.781-7.602 9.313l-2.395 164.032c-.094 6.445 5.872 11.246 12.14 9.757l38.597-8.925c6.816-1.575 13.054 4.485 11.645 11.336l-11.54 55.549c-1.559 7.506 6.319 13.786 13.374 10.45l24.212-11.377a12.767 12.767 0 0 1 11.01.084l68.978 32.416c6.865 3.228 14.8-1.86 14.902-9.505l2.743-206.43c.101-7.631-7.11-13.38-13.97-11.315l-40.823 12.146c-7.59 2.259-14.752-4.608-12.767-12.337l13.45-51.247C303.77 6.549 298.778-.897 292.965.006Z"
  />
  <path
    fill="url(#vite-gradient)"
    d="M289.42 68.896 141.103 121.88c-5.422 1.957-9.062 7.277-9.147 13.043l-1.466 92.992c-.107 7.36 6.962 12.83 13.905 10.59l35.637-11.445c7.004-2.249 13.88 3.6 12.964 10.926l-4.079 32.116c-.964 7.6 7.283 13.128 13.91 9.446l22.535-12.552a11.267 11.267 0 0 1 10.775.105l63.47 34.143c6.55 3.525 14.4-1.188 14.513-8.666l1.696-111.23c.081-5.303-4.83-9.246-10.004-7.93l-42.324 10.861c-6.89 1.767-13.395-4.3-11.963-11.287l8.521-41.563c1.48-7.215-5.366-13.48-12.245-11.191Z"
  />
</svg>
